:SAMPLES-PER-SECOND 30
:FRAME-RANGE 1-4244
:FULLY-SPECIFIED
:DEGREES
2653
root  -25.8868 38.8729 -32.9246 -5.93417 -12.2941 4.9299
RightUpLeg  -11.4905 -8.67222 -9.71034
RightLeg  63.1074 -2.16237 -5.1925
RightFoot  1.13891 -1.65854 15.1583
RightToes  -3.31784e-009 0 -3.6325e-017
Spine  8.90073 1.87313 -5.2355
Spine1  1.6194 1.97122 -6.31811
HEad  7.53367 8.28444 -5.484
LeftShoulder1  1.49718 -0.506595 -31.2824
LeftArm  23.8318 4.56695 -34.4937
LeftForeArm  0.72208 -11.1854 -15.0758
LeftHand  0.192345 -0.694906 -3.62084
RightShoulder  9.07356 14.0322 45.2219
RightArm  23.5067 -1.15309 20.5053
RightForeArm  9.00709 14.0664 11.4442
RightHand  0.617499 6.0477 5.91548
LeftUpLeg  -6.67099 9.22002 -8.09604
LeftLeg  20.2443 8.56828 0.586617
LeftFoot  -9.18557 -0.010931 3.51788
LeftToes  1.0277e-010 -6.71454e-011 3.04227e-011
2654
root  -26.237 38.9817 -31.8967 -5.97522 -11.2061 4.50351
RightUpLeg  -14.283 -9.36867 -9.33929
RightLeg  61.2515 -2.96936 -6.3646
RightFoot  -0.362064 -1.39609 14.43
RightToes  -3.31784e-009 0 -3.6325e-017
Spine  8.6516 1.42372 -5.81168
Spine1  1.25703 1.36005 -5.65917
HEad  8.52431 8.37992 -5.19526
LeftShoulder1  1.52181 -0.595818 -31.0704
LeftArm  23.1775 2.43177 -35.1442
LeftForeArm  1.7297 -11.0438 -15.0673
LeftHand  0.191122 -0.790109 -3.53129
RightShoulder  8.77081 13.5025 45.0736
RightArm  26.2353 -2.08972 21.0576
RightForeArm  5.4742 15.7478 10.3457
RightHand  0.551065 5.86127 5.34218
LeftUpLeg  -4.09263 9.37717 -6.77959
LeftLeg  19.3837 7.30919 -0.663967
LeftFoot  -10.2966 0.0314489 3.34226
LeftToes  1.0277e-010 -6.71454e-011 3.04227e-011
2655
root  -26.5804 39.1505 -30.873 -5.88779 -10.1742 3.85501
RightUpLeg  -16.2942 -10.1508 -8.57241
RightLeg  56.5607 -4.63648 -7.93914
RightFoot  -1.50042 -1.17085 13.4238
RightToes  -3.31784e-009 0 -3.6325e-017
Spine  8.46162 0.914169 -5.90152
Spine1  0.750219 0.817557 -5.04861
HEad  9.06943 8.49801 -4.8786
LeftShoulder1  1.53867 -0.666604 -30.8437
LeftArm  22.5268 0.203417 -35.5787
LeftForeArm  1.73393 -10.8195 -15.1743
LeftHand  0.19804 -0.753949 -3.68758
RightShoulder  8.43621 12.91 44.9181
RightArm  28.8931 -2.99423 21.4692
RightForeArm  2.43744 17.1995 9.30992
RightHand  0.525148 5.75567 5.13023
LeftUpLeg  -1.22925 8.85914 -5.34376
LeftLeg  17.5847 6.59355 -1.64825
LeftFoot  -11.0956 0.0612862 2.52038
LeftToes  1.0277e-010 -6.71454e-011 3.04227e-011
2656
root  -26.9277 39.2598 -29.8788 -5.64505 -9.34064 3.32791
RightUpLeg  -17.8508 -10.774 -7.72923
RightLeg  49.835 -6.99729 -9.13227
RightFoot  -2.26581 -1.05522 13.0477
RightToes  -3.31784e-009 0 -3.6325e-017
Spine  8.15531 0.482139 -6.0435
Spine1  0.387443 0.386896 -4.42081
HEad  9.17954 8.69559 -4.57156
LeftShoulder1  1.55936 -0.73233 -30.7597
LeftArm  21.9434 -2.11857 -35.8848
LeftForeArm  1.72461 -10.4186 -15.4052
LeftHand  0.191502 -0.600411 -3.6725
RightShoulder  8.17544 12.4728 44.7163
RightArm  30.7733 -3.70972 21.6329
RightForeArm  1.57408 17.9403 8.73019
RightHand  0.54582 5.86556 5.28603
LeftUpLeg  1.30615 8.4775 -4.18453
LeftLeg  15.8318 5.72309 -2.26017
LeftFoot  -11.495 0.072384 2.46134
LeftToes  1.0277e-010 -6.71454e-011 3.04227e-011
2657
root  -27.2801 39.3727 -28.9018 -5.30334 -8.55826 2.73248
RightUpLeg  -18.5471 -12.4299 -6.79713
RightLeg  41.0483 -9.69527 -9.1945
RightFoot  -2.23457 -1.04857 12.9233
RightToes  -3.31784e-009 0 -3.6325e-017
Spine  7.88626 0.0779602 -5.81986
Spine1  0.146845 0.0554167 -3.80275
HEad  8.97201 8.83866 -4.35806
LeftShoulder1  1.58502 -0.814329 -30.6551
LeftArm  21.6946 -4.4422 -36.0633
LeftForeArm  2.13875 -9.95671 -15.6632
LeftHand  0.181438 -0.62755 -3.45749
RightShoulder  7.99544 12.2062 44.4648
RightArm  31.7229 -4.3198 21.6897
RightForeArm  1.79088 17.8388 8.84788
RightHand  0.562418 5.9805 5.39467
LeftUpLeg  3.74825 8.48137 -2.96613
LeftLeg  13.8989 4.68449 -2.59944
LeftFoot  -11.9577 0.0810152 1.70736
LeftToes  1.0277e-010 -6.71454e-011 3.04227e-011
2658
root  -27.6535 39.3977 -27.9425 -4.91135 -8.1915 2.51324
RightUpLeg  -19.0847 -14.1634 -5.97346
RightLeg  31.8202 -12.3902 -8.39338
RightFoot  -2.20763 -1.07822 13.2544
RightToes  -3.31784e-009 0 -3.6325e-017
Spine  7.76938 -0.0565019 -5.59367
Spine1  -0.222843 0.0500725 -3.66314
HEad  8.5442 8.73523 -4.18864
LeftShoulder1  1.5963 -0.870856 -30.437
LeftArm  21.5298 -6.61435 -36.2414
LeftForeArm  2.71197 -9.55945 -15.8698
LeftHand  0.177806 -0.738871 -3.31297
RightShoulder  7.86033 11.9819 44.3426
RightArm  31.1425 -4.85884 21.5071
RightForeArm  3.33349 16.8927 9.63438
RightHand  0.590106 6.11491 5.60205
LeftUpLeg  5.77984 8.58356 -2.14583
LeftLeg  12.4759 3.87766 -2.69159
LeftFoot  -12.7598 0.0864554 0.795926
LeftToes  1.0277e-010 -6.71454e-011 3.04227e-011
2659
root  -28.0404 39.3512 -26.9884 -4.37793 -7.97659 2.59128
RightUpLeg  -19.8844 -16.249 -5.08516
RightLeg  23.1866 -13.7021 -6.54936
RightFoot  -1.83762 -1.02123 12.0919
RightToes  -3.31784e-009 0 -3.6325e-017
Spine  7.60923 -0.125125 -5.30449
Spine1  -0.470102 0.15943 -3.8681
HEad  7.79818 8.48822 -4.30357
LeftShoulder1  1.5885 -0.865714 -30.2998
LeftArm  21.0069 -8.52036 -36.2596
LeftForeArm  2.93624 -9.44448 -15.8961
LeftHand  0.177411 -0.69276 -3.29593
RightShoulder  7.82042 11.9096 44.3241
RightArm  28.4941 -5.16721 21.1146
RightForeArm  6.5551 14.8879 11.1356
RightHand  0.59548 6.19806 5.61072
LeftUpLeg  7.43128 8.64985 -1.65793
LeftLeg  11.3934 3.26609 -2.70013
LeftFoot  -13.7305 0.0791947 -0.152936
LeftToes  1.0277e-010 -6.71454e-011 3.04227e-011
2660
root  -28.4548 39.221 -25.997 -4.01657 -7.96021 2.93076
RightUpLeg  -20.6531 -18.3277 -4.26577
RightLeg  16.0582 -12.1456 -4.1129
RightFoot  -1.8243 -0.99761 11.7952
RightToes  -3.31784e-009 0 -3.6325e-017
Spine  7.59525 -0.117209 -5.01438
Spine1  -0.547222 0.348666 -4.33351
HEad  6.68248 8.37831 -4.76596
LeftShoulder1  1.58659 -0.863922 -30.2707
LeftArm  19.9534 -9.82528 -36.052
LeftForeArm  3.43886 -9.58566 -15.7237
LeftHand  0.176171 -0.775113 -3.25847
RightShoulder  7.88154 12.0006 44.4117
RightArm  24.4065 -5.11826 20.4567
RightForeArm  10.5826 11.8987 13.0399
RightHand  0.596561 6.21393 5.61291
LeftUpLeg  9.13384 8.882 -1.24756
LeftLeg  10.7298 2.63043 -2.8618
LeftFoot  -14.8661 0.0634396 -0.836022
LeftToes  1.0277e-010 -6.71454e-011 3.04227e-011
2661
root  -28.9049 39.0312 -24.9632 -3.81036 -7.89294 3.26678
RightUpLeg  -20.8474 -17.9122 -4.52336
RightLeg  11.094 -12.6052 -1.72352
RightFoot  -2.21549 -0.970766 11.9335
RightToes  -3.31784e-009 0 -3.6325e-017
Spine  7.75025 -0.158826 -4.78906
Spine1  -0.485026 0.407198 -4.58273
HEad  5.48979 8.32338 -5.51411
LeftShoulder1  1.5995 -0.886291 -30.3812
LeftArm  20.2752 -10.209 -35.6185
LeftForeArm  2.61671 -10.6873 -15.1007
LeftHand  0.170078 -0.853788 -3.09485
RightShoulder  7.98157 12.2059 44.3848
RightArm  19.2019 -4.82822 19.8163
RightForeArm  15.4419 8.07174 14.7883
RightHand  0.598569 6.19292 5.64431
LeftUpLeg  10.7389 9.1659 -0.728392
LeftLeg  10.7646 2.01452 -2.90387
LeftFoot  -16.4683 0.00479051 -2.09807
LeftToes  1.0277e-010 -6.71454e-011 3.04227e-011
2662
root  -29.4143 38.8138 -23.8713 -3.64798 -7.89307 3.35022
RightUpLeg  -20.6669 -16.3323 -4.84055
RightLeg  8.53054 -15.4239 -0.0885426
RightFoot  -2.89499 -0.895106 11.8144
RightToes  -3.31784e-009 0 -3.6325e-017
Spine  8.04708 -0.208213 -4.40258
Spine1  -0.494464 0.376886 -4.53466
HEad  4.73033 8.28324 -6.05931
LeftShoulder1  1.61386 -0.910449 -30.5088
LeftArm  21.0762 -9.78891 -35.1884
LeftForeArm  1.69662 -11.7055 -14.5049
LeftHand  0.1366 -0.664511 -2.56722
RightShoulder  8.07673 12.3537 44.4994
RightArm  14.447 -4.42336 18.9499
RightForeArm  19.5943 4.14262 15.9339
RightHand  0.613398 6.08035 5.85548
LeftUpLeg  12.4084 9.48165 0.19727
LeftLeg  11.1557 1.14412 -2.88575
LeftFoot  -18.0799 -0.0963817 -3.47704
LeftToes  1.0277e-010 -6.71454e-011 3.04227e-011
2663
root  -30.0125 38.6116 -22.6868 -3.36249 -8.09189 3.3638
RightUpLeg  -20.7751 -16.4553 -3.79036
RightLeg  8.64404 -17.9206 -0.028009
RightFoot  -3.3134 -0.783434 10.8113
RightToes  -3.31784e-009 0 -3.6325e-017
Spine  8.02715 -0.147516 -4.13591
Spine1  -0.354506 0.386308 -4.18341
HEad  4.35691 8.27772 -6.3586
LeftShoulder1  1.6107 -0.913263 -30.4129
LeftArm  21.4151 -8.542 -34.8918
LeftForeArm  1.28073 -12.2872 -14.1223
LeftHand  0.110096 -0.584363 -2.09233
RightShoulder  8.04546 12.2796 44.5376
RightArm  10.6375 -4.15142 18.168
RightForeArm  23.0016 0.658027 16.4255
RightHand  0.625916 5.96225 6.0506
LeftUpLeg  13.9993 10.0744 1.49989
LeftLeg  11.819 -0.0338724 -2.90462
LeftFoot  -19.189 -0.26621 -5.55414
LeftToes  1.0277e-010 -6.71454e-011 3.04227e-011
2664
root  -30.6795 38.4719 -21.4274 -2.8811 -8.41257 3.14575
RightUpLeg  -21.1506 -18.334 -1.33817
RightLeg  10.8997 -16.765 -0.890919
RightFoot  -3.37218 -0.63032 8.70193
RightToes  -3.31784e-009 0 -3.6325e-017
Spine  7.87148 -0.0620962 -3.37277
Spine1  -0.261522 0.43292 -3.78466
HEad  4.37852 8.36101 -6.35274
LeftShoulder1  1.58497 -0.849546 -30.3543
LeftArm  22.2704 -6.69926 -34.35
LeftForeArm  0.552429 -12.6127 -13.9683
LeftHand  0.103659 -0.617014 -1.95209
RightShoulder  7.86255 11.9276 44.5198
RightArm  8.21774 -4.3892 17.5777
RightForeArm  24.2661 -1.66564 16.532
RightHand  0.612843 5.77313 6.02898
LeftUpLeg  15.5806 11.5064 3.61367
LeftLeg  12.5842 -2.43721 -3.16592
LeftFoot  -19.4657 -0.467902 -8.21867
LeftToes  1.0277e-010 -6.71454e-011 3.04227e-011
